<?xml version="1.0" encoding="utf-8"?>
<!-- Generator: Adobe Illustrator 15.1.0, SVG Export Plug-In  -->
<!DOCTYPE svg PUBLIC "-//W3C//DTD SVG 1.1//EN" "http://www.w3.org/Graphics/SVG/1.1/DTD/svg11.dtd" [
	<!ENTITY ns_flows "http://ns.adobe.com/Flows/1.0/">
]>
<svg version="1.1"
	 xmlns="http://www.w3.org/2000/svg" xmlns:xlink="http://www.w3.org/1999/xlink" xmlns:a="http://ns.adobe.com/AdobeSVGViewerExtensions/3.0/"
	 x="0px" y="0px" width="576px" height="216px" viewBox="-36 -36.266 576 216"
	 overflow="visible" enable-background="new -36 -36.266 576 216" xml:space="preserve">
<defs>
</defs>
<path d="M200.923,126.045c-1.445,6.299-4.201,11.139-8.266,14.52c-4.187,3.352-9.14,5.026-14.861,5.026
	c-5.173-0.124-9.492-1.429-12.951-3.916c-3.521-2.392-6.079-5.157-7.671-8.296c-0.483-1.026-0.921-2.004-1.311-2.936
	c-0.36-0.964-0.665-2.176-0.903-3.637c-0.451-2.734-0.676-7.986-0.676-15.756c0-7.893,0.225-13.176,0.678-15.85
	c0.481-2.671,1.219-4.83,2.212-6.479c1.593-3.138,4.152-5.936,7.676-8.39c3.461-2.485,7.779-3.759,12.955-3.823
	c6.353,0.064,11.53,2.002,15.533,5.819c4.002,3.847,6.532,8.609,7.585,14.288h-10.581c-0.814-2.74-2.292-5.076-4.432-7.008
	c-2.229-1.835-4.944-2.785-8.14-2.848c-2.352,0.062-4.371,0.545-6.059,1.447c-1.72,0.934-3.106,2.103-4.161,3.504
	c-1.298,1.464-2.155,3.347-2.577,5.652c-0.482,2.43-0.723,6.99-0.723,13.686s0.24,11.227,0.723,13.594
	c0.422,2.366,1.281,4.281,2.58,5.746c1.054,1.401,2.441,2.537,4.162,3.409c1.687,1.028,3.71,1.542,6.061,1.542
	c5.608,0,9.801-3.1,12.578-9.297H200.923z"/>
<path d="M204.538,77.07h25.719c5.484,0,9.961,1.491,13.424,4.475c4.172,3.388,6.346,8.22,6.527,14.497
	c-0.121,9.229-4.357,15.507-12.711,18.831l15.234,30.158h-11.84l-13.625-29.043h-12.766v29.043h-9.963V77.07z M214.501,106.86
	h15.119c3.742-0.062,6.549-1.184,8.42-3.364c1.842-2.025,2.762-4.52,2.762-7.479c-0.061-3.55-1.162-6.122-3.305-7.712
	c-1.689-1.401-4.135-2.103-7.332-2.103h-15.664V106.86z"/>
<path d="M256.063,77.07h42.053v9.691H266.03v19.445h27.389v9.128H266.03v20.007h32.086v9.689h-42.053V77.07z"/>
<path d="M343.343,129.832h-24.967l-5.055,15.199h-10.564l23.928-67.961h8.352l23.926,67.961h-10.518L343.343,129.832z
	 M340.497,120.704l-9.523-29.731h-0.182l-9.527,29.731H340.497z"/>
<path d="M365.462,86.202h-18.043V77.07h46.062v9.132h-18.053v58.829h-9.967V86.202z"/>
<path d="M398.772,77.07h9.965v67.961h-9.965V77.07z"/>
<path d="M413.298,77.07h10.549l14.924,51.77h0.182l14.969-51.77h10.551l-21.732,67.961h-7.754L413.298,77.07z"/>
<path d="M466.776,77.07h42.051v9.691h-32.086v19.445h27.391v9.128h-27.391v20.007h32.086v9.689h-42.051V77.07z"/>
<path d="M163.534,55.134c0.949,1.298,2.173,2.357,3.673,3.181c1.5,0.98,3.259,1.471,5.278,1.471c2.688,0.062,5.252-0.9,7.694-2.893
	c1.189-0.979,2.121-2.275,2.793-3.888c0.701-1.548,1.054-3.493,1.054-5.831V0.568h10.128v47.606
	c-0.124,6.947-2.321,12.315-6.598,16.105c-4.246,3.884-9.177,5.857-14.797,5.921c-7.823-0.188-13.71-3.174-17.657-8.955
	L163.534,55.134z"/>
<path d="M198.812,45.461c0-5.627,0.16-9.393,0.482-11.299c0.342-1.904,0.867-3.444,1.572-4.618c1.135-2.224,2.955-4.206,5.457-5.946
	c2.463-1.761,5.533-2.664,9.215-2.708c3.725,0.044,6.826,0.95,9.311,2.719c2.459,1.747,4.236,3.735,5.328,5.969
	c0.791,1.172,1.336,2.708,1.637,4.608c0.277,1.902,0.416,5.66,0.416,11.275c0,5.525-0.139,9.262-0.416,11.207
	c-0.301,1.945-0.846,3.504-1.637,4.676c-1.092,2.232-2.869,4.199-5.33,5.902c-2.482,1.768-5.586,2.696-9.309,2.785
	c-3.682-0.089-6.752-1.018-9.215-2.785c-2.504-1.703-4.322-3.67-5.457-5.902c-0.342-0.73-0.652-1.426-0.93-2.09
	c-0.258-0.685-0.473-1.547-0.643-2.586C198.972,54.723,198.812,50.986,198.812,45.461z M205.901,45.461
	c0,4.762,0.172,7.985,0.516,9.669c0.301,1.684,0.91,3.046,1.834,4.087c0.75,0.997,1.736,1.807,2.959,2.426
	c1.201,0.73,2.637,1.097,4.311,1.097c1.695,0,3.164-0.366,4.408-1.097c1.18-0.619,2.123-1.429,2.83-2.426
	c0.922-1.041,1.557-2.403,1.898-4.087c0.322-1.684,0.482-4.907,0.482-9.669c0-4.763-0.16-8.009-0.482-9.736
	c-0.342-1.64-0.977-2.98-1.898-4.021c-0.707-0.996-1.65-1.826-2.83-2.492c-1.244-0.643-2.713-0.985-4.408-1.029
	c-1.674,0.044-3.109,0.387-4.311,1.029c-1.223,0.666-2.209,1.496-2.959,2.492c-0.924,1.041-1.533,2.381-1.834,4.021
	C206.073,37.452,205.901,40.698,205.901,45.461z"/>
<path d="M262.634,48.508h-18.576v21.125h-7.088V21.287h7.088v20.729h18.576V21.287h7.09v48.346h-7.09V48.508z"/>
<path d="M274.503,21.287h6.684l21.209,34.369h0.127V21.287h7.09v48.346h-6.715l-21.176-34.368h-0.129v34.368h-7.09V21.287z"/>
<path d="M321.778,52.901c5.326,4.526,11.664,6.82,19.012,6.884c8.693-0.127,13.102-3.335,13.225-9.625
	c0.064-5.151-2.844-8.248-8.721-9.293c-2.691-0.379-5.645-0.806-8.855-1.279c-5.754-0.979-10.129-3.177-13.125-6.59
	c-3.092-3.508-4.637-7.775-4.637-12.802c0-6.036,1.941-10.904,5.822-14.602c3.758-3.667,9.092-5.531,15.998-5.595
	c8.314,0.189,15.541,2.566,21.686,7.135l-5.648,8.598c-5.02-3.417-10.543-5.188-16.574-5.316c-3.121,0-5.723,0.807-7.803,2.418
	c-2.174,1.676-3.291,4.173-3.352,7.492c0,1.99,0.75,3.791,2.248,5.404c1.5,1.643,3.902,2.781,7.207,3.413
	c1.834,0.315,4.344,0.68,7.525,1.091c6.271,0.885,10.906,3.208,13.906,6.969c2.967,3.699,4.451,7.998,4.451,12.896
	c-0.338,13.212-8.16,19.912-23.475,20.102c-9.902,0-18.416-3.142-25.537-9.427L321.778,52.901z"/>
<path d="M368.024,21.287h16.975c1.842,0,3.621,0.178,5.336,0.531c1.715,0.464,3.451,1.414,5.207,2.851
	c1.477,1.084,2.674,2.63,3.594,4.642c0.963,1.945,1.443,4.245,1.443,6.896c0,3.582-1.221,6.842-3.664,9.781
	c-2.51,3.094-6.174,4.686-10.998,4.774h-10.803v18.87h-7.09V21.287z M375.114,43.872h10.523c2.639-0.044,4.623-0.89,5.953-2.532
	c1.266-1.599,1.898-3.376,1.898-5.33c0-1.621-0.256-2.986-0.771-4.098c-0.537-0.999-1.289-1.787-2.254-2.365
	c-1.459-0.954-3.154-1.41-5.084-1.365h-10.266V43.872z"/>
<path d="M405.046,21.287h29.914v6.895h-22.824v13.834h19.482v6.492h-19.482v14.231h22.824v6.894h-29.914V21.287z"/>
<path d="M469.55,56.127c-1.031,4.48-2.99,7.923-5.881,10.328c-2.979,2.385-6.502,3.576-10.572,3.576
	c-3.682-0.089-6.752-1.018-9.213-2.785c-2.504-1.703-4.322-3.67-5.459-5.902c-0.342-0.73-0.652-1.426-0.93-2.09
	c-0.258-0.685-0.473-1.547-0.643-2.586c-0.322-1.945-0.482-5.682-0.482-11.207c0-5.615,0.162-9.373,0.482-11.275
	c0.342-1.9,0.867-3.437,1.574-4.608c1.135-2.233,2.955-4.222,5.461-5.969c2.461-1.769,5.533-2.675,9.217-2.719
	c4.518,0.044,8.201,1.423,11.049,4.139c2.848,2.737,4.646,6.124,5.396,10.163h-7.527c-0.58-1.947-1.631-3.609-3.154-4.983
	c-1.586-1.307-3.516-1.982-5.789-2.026c-1.674,0.044-3.109,0.387-4.311,1.029c-1.223,0.666-2.209,1.496-2.959,2.492
	c-0.924,1.041-1.533,2.382-1.834,4.021c-0.344,1.728-0.516,4.974-0.516,9.736c0,4.762,0.172,7.985,0.516,9.669
	c0.301,1.684,0.91,3.046,1.834,4.087c0.75,0.997,1.738,1.807,2.961,2.426c1.201,0.73,2.639,1.097,4.312,1.097
	c3.99,0,6.973-2.204,8.947-6.612H469.55z"/>
<path d="M472.497,21.287h7.09V46.19h0.141l19.279-24.903h8.418l-15.006,19.066l16.58,29.279h-8.422l-12.762-23.641l-8.229,8.919
	v14.722h-7.09V21.287z"/>
<path fill="#F1F2F2" d="M140.931,72.354c0-39.001-29.986-69.001-68.966-69.001l0.333,69.036L140.931,72.354z"/>
<path fill="#F1F2F2" d="M72,141.389c38.98,0,68.965-30,68.965-69l-69,0.334L72,141.389z"/>
<path fill="#F1F2F2" d="M2.999,72.424c0,39.001,29.984,69,68.966,69L71.63,72.389L2.999,72.424z"/>
<path fill="#F1F2F2" d="M71.965,3.389c-38.981,0-68.966,30-68.966,69L72,72.055L71.965,3.389z"/>
<rect x="68.966" y="0.389" fill="#ED1C24" width="5.997" height="143.912"/>
<rect y="69.389" fill="#ED1C24" width="144" height="6"/>
<path d="M78.198,84.389c-11.901,0-15.076-9.506-15.076-15.121h5.996c0,0.265,0.034,2.654,1.182,4.907
	c1.447,2.836,4.03,4.214,7.898,4.214c2.783,0,4.845-0.729,6.303-2.229c2.495-2.562,2.458-6.605,2.456-6.646l-0.001-0.08v-36h5.997
	v35.979c0.009,0.703-0.043,6.707-4.154,10.933C86.188,83.028,82.622,84.389,78.198,84.389z"/>
<path d="M65.719,114.301c-4.376,0-7.917-1.348-10.522-4.006c-4.294-4.378-4.226-10.696-4.221-10.963l5.996,0.113
	c0,0.023,0,4.123,2.531,6.675c1.456,1.467,3.49,2.181,6.216,2.181c3.816,0,6.419-1.424,7.957-4.352
	c1.127-2.148,1.275-4.386,1.287-4.61c-0.012-3.706-1.383-6.222-4.187-7.689c-2.33-1.218-4.801-1.261-4.825-1.261l0,0
	c-0.368,0-3.794-0.053-7.322-1.816c-4.936-2.47-7.654-7.152-7.654-13.184c0-0.38,0.053-3.811,1.817-7.342
	c2.468-4.938,7.146-7.658,13.176-7.658l0,0c6.029,0,10.708,2.721,13.177,7.658c1.765,3.531,1.815,6.962,1.815,7.342h-5.997h3
	l-3,0.016c0-0.023-0.041-2.494-1.26-4.826c-1.474-2.819-4.004-4.189-7.735-4.189c-3.732,0-6.263,1.37-7.735,4.189
	c-1.218,2.332-1.26,4.803-1.26,4.826c0,3.719,1.369,6.25,4.187,7.723c2.33,1.221,4.8,1.262,4.825,1.262
	c0.363,0,3.792,0.051,7.321,1.816c4.936,2.47,7.654,7.151,7.654,13.184v0.068c-0.009,0.377-0.137,3.783-1.977,7.283
	C77.172,110.188,73.401,114.301,65.719,114.301z"/>
<path fill="#ED1C24" d="M71.965,6.389c8.907,0,17.546,1.744,25.675,5.185c7.855,3.323,14.911,8.083,20.971,14.146
	c6.06,6.064,10.816,13.123,14.14,20.981c3.438,8.134,5.182,16.776,5.182,25.688s-1.743,17.556-5.182,25.688
	c-3.323,7.858-8.08,14.917-14.14,20.981c-6.06,6.062-13.115,10.822-20.971,14.146c-8.129,3.44-16.768,5.185-25.675,5.185
	c-8.909,0-17.547-1.744-25.677-5.185c-7.854-3.323-14.909-8.083-20.969-14.146c-6.061-6.064-10.817-13.123-14.139-20.981
	c-3.44-8.133-5.184-16.776-5.184-25.688S7.74,54.834,11.181,46.7c3.321-7.858,8.078-14.917,14.139-20.981
	c6.06-6.062,13.115-10.822,20.969-14.146C54.418,8.133,63.056,6.389,71.965,6.389 M71.965,0.389C32.22,0.389,0,32.624,0,72.389
	s32.22,72,71.965,72c39.744,0,71.964-32.235,71.964-72S111.709,0.389,71.965,0.389L71.965,0.389z"/>
<path d="M71.802,129.729c-32.042,0-57.143-25.112-57.143-57.171c0-15.523,5.875-29.949,16.542-40.621
	c10.665-10.672,25.084-16.549,40.601-16.549c12.463,0,23.592,3.476,33.078,10.33c8.155,5.893,13.417,13.054,16.664,17.928
	l-9.98,6.656c-6.554-9.837-17.808-22.914-39.762-22.914c-12.313,0-23.719,4.629-32.12,13.034S26.653,60.24,26.653,72.559
	c0,25.33,19.832,45.171,45.148,45.171c21.955,0,33.208-13.077,39.762-22.913l9.98,6.656c-3.247,4.873-8.509,12.033-16.664,17.926
	C95.394,126.254,84.265,129.729,71.802,129.729z"/>
</svg>
