<?xml version="1.0" encoding="utf-8"?>
<!-- Generator: Adobe Illustrator 15.1.0, SVG Export Plug-In . SVG Version: 6.00 Build 0)  -->
<!DOCTYPE svg PUBLIC "-//W3C//DTD SVG 1.1//EN" "http://www.w3.org/Graphics/SVG/1.1/DTD/svg11.dtd">
<svg version="1.1" id="Layer_1" xmlns="http://www.w3.org/2000/svg" xmlns:xlink="http://www.w3.org/1999/xlink" x="0px" y="0px"
	 width="432px" height="432px" viewBox="0 0 432 432" enable-background="new 0 0 432 432" xml:space="preserve">
<g>
	<path fill="#F1F2F2" d="M423,215.893c0-117-90-207-207-207L217,216L423,215.893z"/>
	<path fill="#F1F2F2" d="M216.107,423c117,0,207-90,207-207L216,217L216.107,423z"/>
	<path fill="#F1F2F2" d="M9,216.107c0,117,90,207,207,207L215,216L9,216.107z"/>
	<path fill="#F1F2F2" d="M216,9C99,9,9,99,9,216l207.107-1L216,9z"/>
	<line fill="none" stroke="#ED1C24" stroke-width="18" stroke-miterlimit="10" x1="216" y1="0" x2="216" y2="431.734"/>
	<line fill="none" stroke="#ED1C24" stroke-width="18" stroke-miterlimit="10" x1="0" y1="216" x2="432.215" y2="216"/>
	<path fill="none" stroke="#000000" stroke-width="18" stroke-miterlimit="10" d="M269.998,99.133v108
		c0,0,0.966,35.867-35.287,35.867c-36.252,0-36.253-34.684-36.253-36.363"/>
	<path fill="none" stroke="#000000" stroke-width="18" stroke-miterlimit="10" d="M234.001,225c0,0,0-35.999-36-36
		c-36.001,0-36,36-36,36c-0.001,36,36,36,36,36s35.999,0,36,36c0,0-0.813,35.735-36.744,35.735
		c-35.931,0-35.256-35.735-35.256-35.735"/>
	<g>
		<path fill="#ED1C24" d="M216,18c26.738,0,52.667,5.232,77.064,15.552c23.576,9.972,44.752,24.251,62.942,42.44
			c18.188,18.19,32.47,39.367,42.439,62.942C408.768,163.334,414,189.262,414,216s-5.232,52.667-15.553,77.064
			c-9.971,23.575-24.25,44.753-42.439,62.941c-18.189,18.19-39.367,32.469-62.941,42.44C268.667,408.768,242.738,414,216,414
			s-52.667-5.232-77.065-15.553c-23.575-9.973-44.752-24.25-62.942-42.44c-18.189-18.188-32.469-39.366-42.44-62.94
			C23.232,268.667,18,242.738,18,216s5.232-52.666,15.552-77.065c9.972-23.576,24.251-44.752,42.44-62.942
			c18.19-18.189,39.367-32.469,62.942-42.44C163.333,23.232,189.262,18,216,18 M216,0C96.706,0,0,96.707,0,216
			c0,119.294,96.706,216,216,216s216-96.706,216-216C432,96.707,335.294,0,216,0L216,0z"/>
	</g>
	<path fill="none" stroke="#000000" stroke-width="36" stroke-miterlimit="10" d="M350.834,138.734
		c-19.189-28.783-57.566-76.756-134.323-76.756c-86.35,0-153.512,67.16-153.511,153.511C63,301.84,130.161,369,216.511,369
		c76.756,0,115.133-47.971,134.323-76.756"/>
</g>
</svg>
