<?xml version="1.0" encoding="utf-8"?>
<!-- Generator: Adobe Illustrator 15.1.0, SVG Export Plug-In  -->
<!DOCTYPE svg PUBLIC "-//W3C//DTD SVG 1.1//EN" "http://www.w3.org/Graphics/SVG/1.1/DTD/svg11.dtd" [
	<!ENTITY ns_flows "http://ns.adobe.com/Flows/1.0/">
]>
<svg version="1.1"
	 xmlns="http://www.w3.org/2000/svg" xmlns:xlink="http://www.w3.org/1999/xlink" xmlns:a="http://ns.adobe.com/AdobeSVGViewerExtensions/3.0/"
	 x="0px" y="0px" width="828px" height="108px" viewBox="-18 -18 828 108"
	 overflow="visible" enable-background="new -18 -18 828 108" xml:space="preserve">
<defs>
</defs>
<path fill="#FFFFFF" d="M484.096,52.454c-1.445,6.299-4.201,11.139-8.266,14.52C471.644,70.325,466.69,72,460.969,72
	c-5.173-0.124-9.492-1.429-12.951-3.916c-3.521-2.392-6.079-5.157-7.671-8.296c-0.483-1.026-0.921-2.004-1.311-2.936
	c-0.36-0.964-0.665-2.176-0.903-3.637c-0.451-2.734-0.676-7.986-0.676-15.756c0-7.893,0.225-13.176,0.678-15.85
	c0.481-2.671,1.219-4.83,2.212-6.479c1.593-3.138,4.152-5.936,7.676-8.39c3.461-2.485,7.779-3.759,12.955-3.823
	c6.353,0.064,11.53,2.002,15.533,5.819c4.002,3.847,6.532,8.609,7.585,14.288h-10.581c-0.814-2.74-2.292-5.076-4.432-7.008
	c-2.229-1.835-4.944-2.785-8.14-2.848c-2.352,0.062-4.371,0.545-6.059,1.447c-1.72,0.934-3.106,2.103-4.161,3.504
	c-1.298,1.464-2.155,3.347-2.577,5.652c-0.482,2.43-0.723,6.99-0.723,13.686s0.24,11.227,0.723,13.594
	c0.422,2.366,1.281,4.281,2.58,5.746c1.054,1.401,2.441,2.537,4.162,3.409c1.687,1.028,3.71,1.542,6.061,1.542
	c5.608,0,9.801-3.1,12.578-9.297H484.096z"/>
<path fill="#FFFFFF" d="M487.711,3.479h25.719c5.484,0,9.961,1.491,13.424,4.475c4.172,3.388,6.346,8.22,6.527,14.497
	c-0.121,9.229-4.357,15.507-12.711,18.831l15.234,30.158h-11.84l-13.625-29.043h-12.766V71.44h-9.963V3.479z M497.674,33.27h15.119
	c3.742-0.062,6.549-1.184,8.42-3.364c1.842-2.025,2.762-4.52,2.762-7.479c-0.061-3.55-1.162-6.122-3.305-7.712
	c-1.689-1.401-4.135-2.103-7.332-2.103h-15.664V33.27z"/>
<path fill="#FFFFFF" d="M539.236,3.479h42.053v9.691h-32.086v19.445h27.389v9.128h-27.389v20.007h32.086v9.689h-42.053V3.479z"/>
<path fill="#FFFFFF" d="M626.516,56.241h-24.967l-5.055,15.199H585.93l23.928-67.961h8.352l23.926,67.961h-10.518L626.516,56.241z
	 M623.67,47.113l-9.523-29.731h-0.182l-9.527,29.731H623.67z"/>
<path fill="#FFFFFF" d="M648.635,12.611h-18.043V3.479h46.062v9.132h-18.053V71.44h-9.967V12.611z"/>
<path fill="#FFFFFF" d="M681.945,3.479h9.965V71.44h-9.965V3.479z"/>
<path fill="#FFFFFF" d="M696.471,3.479h10.549l14.924,51.77h0.182l14.969-51.77h10.551L725.912,71.44h-7.754L696.471,3.479z"/>
<path fill="#FFFFFF" d="M749.949,3.479H792v9.691h-32.086v19.445h27.391v9.128h-27.391v20.007H792v9.689h-42.051V3.479z"/>
<path fill="#FFFFFF" d="M81.708,56.933c0.949,1.298,2.173,2.357,3.673,3.181c1.5,0.98,3.259,1.471,5.278,1.471
	c2.688,0.062,5.252-0.9,7.694-2.893c1.189-0.979,2.121-2.275,2.793-3.888c0.701-1.548,1.054-3.493,1.054-5.831V2.367h10.128v47.606
	c-0.124,6.947-2.321,12.315-6.598,16.105c-4.246,3.884-9.177,5.857-14.797,5.921c-7.823-0.188-13.71-3.174-17.657-8.955
	L81.708,56.933z"/>
<path fill="#FFFFFF" d="M116.985,47.26c0-5.627,0.16-9.393,0.482-11.299c0.342-1.904,0.867-3.444,1.572-4.618
	c1.135-2.224,2.955-4.206,5.457-5.946c2.463-1.761,5.533-2.664,9.215-2.708c3.725,0.044,6.826,0.95,9.311,2.719
	c2.459,1.747,4.236,3.735,5.328,5.969c0.791,1.172,1.336,2.708,1.637,4.608c0.277,1.902,0.416,5.66,0.416,11.275
	c0,5.525-0.139,9.262-0.416,11.207c-0.301,1.945-0.846,3.504-1.637,4.676c-1.092,2.232-2.869,4.199-5.33,5.902
	c-2.482,1.768-5.586,2.696-9.309,2.785c-3.682-0.089-6.752-1.018-9.215-2.785c-2.504-1.703-4.322-3.67-5.457-5.902
	c-0.342-0.73-0.652-1.426-0.93-2.09c-0.258-0.685-0.473-1.547-0.643-2.586C117.146,56.521,116.985,52.785,116.985,47.26z
	 M124.075,47.26c0,4.762,0.172,7.985,0.516,9.669c0.301,1.684,0.91,3.046,1.834,4.087c0.75,0.997,1.736,1.807,2.959,2.426
	c1.201,0.73,2.637,1.097,4.311,1.097c1.695,0,3.164-0.366,4.408-1.097c1.18-0.619,2.123-1.429,2.83-2.426
	c0.922-1.041,1.557-2.403,1.898-4.087c0.322-1.684,0.482-4.907,0.482-9.669c0-4.763-0.16-8.009-0.482-9.736
	c-0.342-1.64-0.977-2.98-1.898-4.021c-0.707-0.996-1.65-1.826-2.83-2.492c-1.244-0.643-2.713-0.985-4.408-1.029
	c-1.674,0.044-3.109,0.387-4.311,1.029c-1.223,0.666-2.209,1.496-2.959,2.492c-0.924,1.041-1.533,2.381-1.834,4.021
	C124.247,39.251,124.075,42.497,124.075,47.26z"/>
<path fill="#FFFFFF" d="M180.808,50.307h-18.576v21.125h-7.088V23.086h7.088v20.729h18.576V23.086h7.09v48.346h-7.09V50.307z"/>
<path fill="#FFFFFF" d="M192.677,23.086h6.684l21.209,34.369h0.127V23.086h7.09v48.346h-6.715l-21.176-34.368h-0.129v34.368h-7.09
	V23.086z"/>
<path fill="#FFFFFF" d="M239.952,54.7c5.326,4.526,11.664,6.82,19.012,6.884c8.693-0.127,13.102-3.335,13.225-9.625
	c0.064-5.151-2.844-8.248-8.721-9.293c-2.691-0.379-5.645-0.806-8.855-1.279c-5.754-0.979-10.129-3.177-13.125-6.59
	c-3.092-3.508-4.637-7.775-4.637-12.802c0-6.036,1.941-10.904,5.822-14.602c3.758-3.667,9.092-5.531,15.998-5.595
	c8.314,0.189,15.541,2.566,21.686,7.135l-5.648,8.598c-5.02-3.417-10.543-5.188-16.574-5.316c-3.121,0-5.723,0.807-7.803,2.418
	c-2.174,1.676-3.291,4.173-3.352,7.492c0,1.99,0.75,3.791,2.248,5.404c1.5,1.643,3.902,2.781,7.207,3.413
	c1.834,0.315,4.344,0.68,7.525,1.091c6.271,0.885,10.906,3.208,13.906,6.969c2.967,3.699,4.451,7.998,4.451,12.896
	c-0.338,13.212-8.16,19.912-23.475,20.102c-9.902,0-18.416-3.142-25.537-9.427L239.952,54.7z"/>
<path fill="#FFFFFF" d="M286.198,23.086h16.975c1.842,0,3.621,0.178,5.336,0.531c1.715,0.464,3.451,1.414,5.207,2.851
	c1.477,1.084,2.674,2.63,3.594,4.642c0.963,1.945,1.443,4.245,1.443,6.896c0,3.582-1.221,6.842-3.664,9.781
	c-2.51,3.094-6.174,4.686-10.998,4.774h-10.803v18.87h-7.09V23.086z M293.288,45.671h10.523c2.639-0.044,4.623-0.89,5.953-2.532
	c1.266-1.599,1.898-3.376,1.898-5.33c0-1.621-0.256-2.986-0.771-4.098c-0.537-0.999-1.289-1.787-2.254-2.365
	c-1.459-0.954-3.154-1.41-5.084-1.365h-10.266V45.671z"/>
<path fill="#FFFFFF" d="M323.22,23.086h29.914v6.895H330.31v13.834h19.482v6.492H330.31v14.231h22.824v6.894H323.22V23.086z"/>
<path fill="#FFFFFF" d="M387.724,57.926c-1.031,4.48-2.99,7.923-5.881,10.328c-2.979,2.385-6.502,3.576-10.572,3.576
	c-3.682-0.089-6.752-1.018-9.213-2.785c-2.504-1.703-4.322-3.67-5.459-5.902c-0.342-0.73-0.652-1.426-0.93-2.09
	c-0.258-0.685-0.473-1.547-0.643-2.586c-0.322-1.945-0.482-5.682-0.482-11.207c0-5.615,0.162-9.373,0.482-11.275
	c0.342-1.9,0.867-3.437,1.574-4.608c1.135-2.233,2.955-4.222,5.461-5.969c2.461-1.769,5.533-2.675,9.217-2.719
	c4.518,0.044,8.201,1.423,11.049,4.139c2.848,2.737,4.646,6.124,5.396,10.163h-7.527c-0.58-1.947-1.631-3.609-3.154-4.983
	c-1.586-1.307-3.516-1.982-5.789-2.026c-1.674,0.044-3.109,0.387-4.311,1.029c-1.223,0.666-2.209,1.496-2.959,2.492
	c-0.924,1.041-1.533,2.382-1.834,4.021c-0.344,1.728-0.516,4.974-0.516,9.736c0,4.762,0.172,7.985,0.516,9.669
	c0.301,1.684,0.91,3.046,1.834,4.087c0.75,0.997,1.738,1.807,2.961,2.426c1.201,0.73,2.639,1.097,4.312,1.097
	c3.99,0,6.973-2.204,8.947-6.612H387.724z"/>
<path fill="#FFFFFF" d="M390.671,23.086h7.09v24.903h0.141l19.279-24.903h8.418l-15.006,19.066l16.58,29.279h-8.422l-12.762-23.641
	l-8.229,8.919v14.722h-7.09V23.086z"/>
<path fill="#F1F2F2" d="M70.465,35.982c0-19.501-14.992-34.501-34.482-34.501L36.148,36L70.465,35.982z"/>
<path fill="#F1F2F2" d="M36,70.5c19.49,0,34.482-15,34.482-34.5l-34.5,0.166L36,70.5z"/>
<path fill="#F1F2F2" d="M1.5,36.018c0,19.5,14.992,34.5,34.482,34.5L35.814,36L1.5,36.018z"/>
<path fill="#F1F2F2" d="M35.982,1.5C16.492,1.5,1.5,16.5,1.5,36L36,35.832L35.982,1.5z"/>
<rect x="34.482" fill="#ED1C24" width="2.999" height="71.955"/>
<rect y="34.5" fill="#ED1C24" width="72" height="3"/>
<path d="M39.1,42c-5.951,0-7.539-4.754-7.539-7.561h2.998c0,0.132,0.018,1.326,0.592,2.453C35.873,38.311,37.165,39,39.1,39
	c1.391,0,2.422-0.365,3.15-1.115c1.248-1.281,1.229-3.303,1.229-3.322v-0.041v-18h2.998v17.99c0.004,0.352-0.021,3.354-2.077,5.466
	C43.094,41.319,41.311,42,39.1,42z"/>
<path d="M32.859,56.955c-2.188,0-3.959-0.674-5.262-2.002c-2.146-2.189-2.112-5.349-2.109-5.482l2.998,0.057
	c0,0.012,0,2.062,1.266,3.338c0.728,0.733,1.744,1.09,3.107,1.09c1.908,0,3.209-0.711,3.979-2.176
	c0.563-1.074,0.638-2.192,0.644-2.305c-0.006-1.854-0.691-3.111-2.093-3.845c-1.166-0.608-2.4-0.63-2.413-0.63l0,0
	c-0.185,0-1.897-0.027-3.661-0.908c-2.468-1.235-3.827-3.576-3.827-6.592c0-0.19,0.026-1.906,0.909-3.672
	C27.63,31.359,29.969,30,32.984,30l0,0c3.014,0,5.354,1.359,6.588,3.828c0.883,1.766,0.908,3.481,0.908,3.672h-2.999h1.5l-1.5,0.008
	c0-0.012-0.021-1.248-0.63-2.414C36.115,33.685,34.85,33,32.984,33c-1.867,0-3.132,0.685-3.868,2.094
	c-0.608,1.166-0.63,2.402-0.63,2.414c0,1.859,0.685,3.125,2.094,3.861C31.744,41.979,32.979,42,32.992,42
	c0.182,0,1.896,0.025,3.66,0.908c2.469,1.234,3.828,3.575,3.828,6.592v0.033c-0.005,0.189-0.068,1.893-0.988,3.643
	C38.586,54.899,36.701,56.955,32.859,56.955z"/>
<path fill="#ED1C24" d="M35.982,3c4.453,0,8.773,0.871,12.838,2.592c3.928,1.662,7.455,4.041,10.484,7.072
	c3.03,3.033,5.408,6.562,7.07,10.491c1.719,4.067,2.591,8.388,2.591,12.845c0,4.455-0.872,8.777-2.591,12.844
	c-1.662,3.93-4.04,7.459-7.07,10.49c-3.029,3.031-6.557,5.412-10.484,7.073C44.756,68.127,40.436,69,35.982,69
	c-4.455,0-8.773-0.873-12.838-2.593c-3.928-1.661-7.455-4.042-10.484-7.073c-3.031-3.031-5.409-6.561-7.07-10.49
	C3.87,44.777,2.998,40.455,2.998,36c0-4.457,0.872-8.777,2.592-12.845c1.661-3.929,4.039-7.458,7.07-10.491
	c3.029-3.031,6.557-5.41,10.484-7.072C27.209,3.871,31.527,3,35.982,3 M35.982,0C16.109,0,0,16.117,0,36
	c0,19.882,16.109,36,35.982,36c19.872,0,35.982-16.118,35.982-36C71.965,16.117,55.854,0,35.982,0L35.982,0z"/>
<path d="M35.9,64.67c-16.021,0-28.57-12.557-28.57-28.586c0-7.762,2.938-14.975,8.271-20.311S28.143,7.5,35.9,7.5
	c6.232,0,11.797,1.737,16.539,5.164c4.078,2.947,6.709,6.527,8.332,8.965l-4.99,3.328C52.505,20.038,46.878,13.5,35.9,13.5
	c-6.156,0-11.859,2.314-16.06,6.517s-6.515,9.909-6.515,16.067c0,12.666,9.916,22.586,22.574,22.586
	c10.979,0,16.604-6.539,19.881-11.457l4.99,3.328c-1.623,2.438-4.254,6.018-8.332,8.963C47.697,62.932,42.133,64.67,35.9,64.67z"/>
</svg>
